<?xml version="1.0" standalone="no"?>
<!DOCTYPE svg PUBLIC "-//W3C//DTD SVG 20010904//EN"
 "http://www.w3.org/TR/2001/REC-SVG-20010904/DTD/svg10.dtd">
<svg version="1.0" xmlns="http://www.w3.org/2000/svg"
 width="1050.000000pt" height="1050.000000pt" viewBox="0 0 1050.000000 1050.000000"
 preserveAspectRatio="xMidYMid meet">

<g transform="translate(0.000000,1050.000000) scale(0.100000,-0.100000)"
fill="#FFFFFF" stroke="none">
<path d="M7195 9675 c-89 -16 -176 -49 -313 -119 -234 -120 -425 -268 -697
-541 -348 -347 -675 -774 -970 -1263 l-98 -164 -67 134 c-68 135 -166 301
-248 418 -315 449 -798 934 -1329 1333 l-102 77 -78 -31 c-43 -17 -83 -35 -89
-40 -22 -18 -2 -301 32 -469 70 -343 222 -659 461 -955 164 -204 446 -453 663
-588 41 -25 83 -52 93 -59 18 -12 13 -22 -67 -142 -80 -119 -91 -132 -152
-167 -238 -139 -484 -344 -605 -504 -207 -272 -248 -551 -118 -795 23 -43 48
-68 112 -115 114 -84 289 -255 344 -337 76 -115 102 -213 80 -299 -8 -34 -24
-51 -116 -121 -231 -178 -432 -369 -544 -520 -73 -97 -141 -218 -168 -298 -22
-65 -22 -66 -20 -852 l2 -786 73 -154 c155 -323 214 -542 172 -643 -21 -49
-53 -66 -122 -64 -126 4 -264 -65 -264 -133 0 -73 171 -236 337 -321 29 -15
159 -17 1520 -14 l1488 2 121 42 c221 76 344 153 344 216 0 61 -105 137 -265
193 -44 15 -82 29 -84 31 -2 1 10 29 27 60 84 159 123 433 124 855 0 212 -5
355 -21 558 -6 84 -6 86 36 180 153 345 134 603 -56 783 -120 112 -256 167
-550 222 -538 101 -771 -29 -681 -378 40 -160 158 -392 291 -574 27 -37 49
-70 49 -73 0 -3 -40 -28 -88 -56 -48 -27 -206 -120 -352 -206 -184 -108 -445
-246 -856 -451 l-591 -296 -192 42 -191 42 0 208 c0 205 1 213 42 418 l41 209
384 0 385 0 54 46 c30 26 76 74 103 108 188 237 169 496 -57 763 l-44 53 72
127 c223 392 418 661 640 883 223 223 419 341 591 357 l57 6 32 116 c22 81 59
172 121 301 51 106 93 208 99 239 45 245 -56 510 -273 719 l-66 62 21 109 22
108 45 29 c245 154 667 605 1068 1139 271 362 354 486 428 640 120 252 177
425 177 544 1 140 -60 184 -217 156z m-2062 -2949 c114 -47 144 -238 54 -334
-122 -131 -302 10 -258 201 26 113 114 171 204 133z"/>
<path d="M6747 7513 c-22 -111 -468 -2191 -472 -2200 -2 -7 -2 -13 0 -13 9 0
160 187 263 325 438 586 631 1036 601 1401 -18 216 -135 401 -311 490 -61 31
-74 30 -81 -3z"/>
<path d="M8227 6640 c-243 -39 -481 -146 -762 -344 -319 -225 -672 -563 -1043
-1000 -56 -66 -100 -121 -98 -123 2 -2 111 47 242 108 301 140 1153 537 1554
724 168 78 411 190 540 250 129 60 238 112 243 115 13 11 -57 93 -118 139 -67
51 -157 94 -240 116 -75 19 -241 27 -318 15z"/>
<path d="M7770 5554 c-332 -42 -735 -204 -1212 -487 -65 -38 -118 -72 -118
-75 0 -4 199 3 320 13 61 5 147 10 415 25 99 6 209 12 245 15 36 3 146 10 245
15 204 11 323 18 410 25 33 2 121 7 195 11 74 4 142 8 150 10 8 1 32 3 54 3
l39 1 -7 42 c-11 65 -73 174 -138 239 -65 64 -163 118 -263 145 -59 15 -267
26 -335 18z"/>
</g>
</svg>
